<?xml version="1.0" ?><!DOCTYPE svg  PUBLIC '-//W3C//DTD SVG 1.1//EN'  'http://www.w3.org/Graphics/SVG/1.1/DTD/svg11.dtd'><svg enable-background="new 0 0 128 128" id="Слой_1" version="1.1" viewBox="0 0 128 128" xml:space="preserve" xmlns="http://www.w3.org/2000/svg" xmlns:xlink="http://www.w3.org/1999/xlink"><polygon fill="#DEDEE0" points="89,94 89,4 39,4 39,74 39,124 89,124 89,94 "/><rect fill="#F8F7FB" height="60" width="50" x="4" y="64"/><path d="M99,84L99,84c-13.5,0-24-11.5-22.9-24.9L79,24h40l2.9,35.1C123,72.5,112.5,84,99,84z" fill="#F8F7FB"/><g opacity="0.1"><path d="M86.1,59.1L89,24H79l-2.9,35.1C75,72.5,85.5,84,99,84h0c1.7,0,3.4-0.2,5-0.5C93,81,85.1,70.8,86.1,59.1z"/></g><line fill="#E4F3F1" x1="29" x2="5" y1="109" y2="109"/><line fill="#E4F3F1" x1="89" x2="89" y1="34" y2="71.7"/><rect height="15" opacity="0.1" width="50" x="40" y="109"/><g opacity="0.1"><polygon points="49,4 39,4 39,74 39,124 49,124 49,74  "/></g><rect height="15" opacity="0.1" width="50" x="4" y="109"/><g><polyline opacity="0.1" points="14,64 4,64 4,124 14,124  "/></g><line fill="#E4F3F1" x1="88" x2="64" y1="109" y2="109"/><line fill="#E4F3F1" x1="99" x2="99" y1="85" y2="123"/><line fill="#E4F3F1" x1="122" x2="76" y1="124" y2="124"/><line fill="#E4F3F1" x1="40" x2="44" y1="109" y2="109"/><path d="M89,31.5c-1.4,0-2.5,1.1-2.5,2.5v37.7c0,1.4,1.1,2.5,2.5,2.5s2.5-1.1,2.5-2.5V34  C91.5,32.6,90.4,31.5,89,31.5z" fill="#62355C"/><path d="M89,16.5c1.4,0,2.5-1.1,2.5-2.5V4c0-1.4-1.1-2.5-2.5-2.5H39c-1.4,0-2.5,1.1-2.5,2.5v50  c0,1.4,1.1,2.5,2.5,2.5s2.5-1.1,2.5-2.5V6.5h45V14C86.5,15.4,87.6,16.5,89,16.5z" fill="#62355C"/><path d="M122,121.5h-20.5V86.4c6.2-0.6,12-3.5,16.3-8.1c4.8-5.2,7.2-12.3,6.6-19.4l-2.9-35.1  c-0.1-1.3-1.2-2.3-2.5-2.3H79c-1.3,0-2.4,1-2.5,2.3l-2.9,35.1C73,66,75.4,73,80.2,78.3c4.2,4.6,10.1,7.5,16.3,8.1v35.1h-5V91.7  c0-1.4-1.1-2.5-2.5-2.5s-2.5,1.1-2.5,2.5v14.8H64c-1.4,0-2.5,1.1-2.5,2.5s1.1,2.5,2.5,2.5h22.5v10H76H56.5V64c0-1.4-1.1-2.5-2.5-2.5  H4c-1.4,0-2.5,1.1-2.5,2.5v60c0,1.4,1.1,2.5,2.5,2.5h35h15h22h13h33c1.4,0,2.5-1.1,2.5-2.5S123.4,121.5,122,121.5z M78.6,59.3  l2.7-32.8h35.4l2.7,32.8c0.5,5.8-1.4,11.3-5.3,15.6c-3.9,4.3-9.3,6.6-15.1,6.6s-11.2-2.4-15.1-6.6C80,70.6,78.1,65.1,78.6,59.3z   M41.5,121.5v-10H44c1.4,0,2.5-1.1,2.5-2.5s-1.1-2.5-2.5-2.5h-2.5V74c0-1.4-1.1-2.5-2.5-2.5s-2.5,1.1-2.5,2.5v47.5h-30v-10H29  c1.4,0,2.5-1.1,2.5-2.5s-1.1-2.5-2.5-2.5H6.5v-40h45v55H41.5z" fill="#62355C"/></svg>